<svg width="2269" height="1590" xmlns="http://www.w3.org/2000/svg" xmlns:xlink="http://www.w3.org/1999/xlink" xml:space="preserve" overflow="hidden"><defs><linearGradient x1="751" y1="1585" x2="751" y2="1790" gradientUnits="userSpaceOnUse" spreadMethod="reflect" id="fill0"><stop offset="0" stop-color="#FFDD9C"/><stop offset="0.5" stop-color="#FFD78E"/><stop offset="1" stop-color="#FFD479"/></linearGradient></defs><g transform="translate(-506 -247)"><path d="M2092.5 283.667C2092.5 264.797 2107.8 249.5 2126.67 249.5L2738.33 249.5C2757.2 249.5 2772.5 264.797 2772.5 283.667L2772.5 420.333C2772.5 439.203 2757.2 454.5 2738.33 454.5L2126.67 454.5C2107.8 454.5 2092.5 439.203 2092.5 420.333Z" stroke="#2F528F" stroke-width="4.58333" stroke-miterlimit="8" fill="#4472C4" fill-rule="evenodd"/><text fill="#FFFFFF" font-family="Calibri,Calibri_MSFontService,sans-serif" font-weight="400" font-size="83" transform="matrix(1 0 0 1 2332.69 379)">Issuer</text><path d="M598.5 283.667C598.5 264.797 613.797 249.5 632.667 249.5L1245.33 249.5C1264.2 249.5 1279.5 264.797 1279.5 283.667L1279.5 420.333C1279.5 439.203 1264.2 454.5 1245.33 454.5L632.667 454.5C613.797 454.5 598.5 439.203 598.5 420.333Z" stroke="#2F528F" stroke-width="4.58333" stroke-miterlimit="8" fill="#4472C4" fill-rule="evenodd"/><text fill="#FFFFFF" font-family="Calibri,Calibri_MSFontService,sans-serif" font-weight="400" font-size="83" transform="matrix(1 0 0 1 860.998 379)">User</text><path d="M982.5 672.062 2453.89 672.063 2453.89 678.938 982.5 678.937ZM2449.31 661.75 2476.81 675.5 2449.31 689.25Z" fill="#4472C4"/><path d="M1005.42 955.062 2476.81 955.063 2476.81 961.938 1005.42 961.937ZM1010 972.25 982.5 958.5 1010 944.75Z" fill="#4472C4"/><path d="M982.5 1225.06 2453.89 1225.06 2453.89 1231.94 982.5 1231.94ZM2449.31 1214.75 2476.81 1228.5 2449.31 1242.25Z" fill="#4472C4"/><path d="M1005.42 1528.06 2476.81 1528.06 2476.81 1534.94 1005.42 1534.94ZM1010 1545.25 982.5 1531.5 1010 1517.75Z" fill="#4472C4"/><text font-family="Arial,Arial_MSFontService,sans-serif" font-weight="400" font-size="83" transform="matrix(1 0 0 1 1296.52 926)">First issuance message</text><text font-family="Arial,Arial_MSFontService,sans-serif" font-weight="400" font-size="83" transform="matrix(1 0 0 1 1466.1 645)">Token request</text><text font-family="Arial,Arial_MSFontService,sans-serif" font-weight="400" font-size="83" transform="matrix(1 0 0 1 1236.93 1195)">Second issuance message</text><text font-family="Arial,Arial_MSFontService,sans-serif" font-weight="400" font-size="83" transform="matrix(1 0 0 1 1282.77 1485)">Third issuance message</text><path d="M508 1619.17C508 1600.3 523.297 1585 542.167 1585L959.833 1585C978.703 1585 994 1600.3 994 1619.17L994 1755.83C994 1774.7 978.703 1790 959.833 1790L542.167 1790C523.297 1790 508 1774.7 508 1755.83Z" stroke="#FFC000" stroke-width="2.29167" stroke-miterlimit="8" fill="url(#fill0)" fill-rule="evenodd"/><text font-family="Calibri,Calibri_MSFontService,sans-serif" font-weight="400" font-size="83" transform="matrix(1 0 0 1 556.196 1666)">Create keys </text><text font-family="Calibri,Calibri_MSFontService,sans-serif" font-weight="400" font-size="83" transform="matrix(1 0 0 1 600.586 1765)">&amp; tokens</text></g></svg>